<svg width="401" height="64" viewBox="0 0 401 64" fill="none" xmlns="http://www.w3.org/2000/svg">
<path d="M372.967 48.9066V15.0879H378.697L394.385 38.9254V15.0879H400.116V48.9066H394.385L378.697 25.0691V48.9066H372.967Z" fill="white"/>
<path d="M338.272 48.9066V15.0879H352.246C352.575 15.0879 352.998 15.1035 353.514 15.1349C354.031 15.1505 354.509 15.1975 354.947 15.2758C356.904 15.5732 358.517 16.223 359.785 17.225C361.069 18.2271 362.016 19.4953 362.627 21.0296C363.253 22.5484 363.566 24.2393 363.566 26.1024C363.566 27.9499 363.253 29.6409 362.627 31.1752C362 32.694 361.045 33.9543 359.761 34.9564C358.493 35.9584 356.888 36.6081 354.947 36.9056C354.509 36.9683 354.023 37.0152 353.491 37.0465C352.974 37.0779 352.559 37.0935 352.246 37.0935H343.932V48.9066H338.272ZM343.932 31.8093H352.011C352.324 31.8093 352.677 31.7937 353.068 31.7624C353.46 31.7311 353.82 31.6684 354.148 31.5745C355.088 31.3396 355.824 30.9247 356.356 30.3298C356.904 29.7348 357.288 29.0616 357.507 28.3101C357.742 27.5585 357.859 26.8227 357.859 26.1024C357.859 25.3822 357.742 24.6464 357.507 23.8948C357.288 23.1277 356.904 22.4466 356.356 21.8516C355.824 21.2567 355.088 20.8418 354.148 20.6069C353.82 20.513 353.46 20.4582 353.068 20.4425C352.677 20.4112 352.324 20.3955 352.011 20.3955H343.932V31.8093Z" fill="white"/>
<path d="M311.091 48.9066L300.429 15.0879H306.253L315.177 43.411L324.219 15.0879H330.044L319.381 48.9066H311.091Z" fill="white"/>
<path d="M253.676 48.9066V15.0879H267.65C267.979 15.0879 268.401 15.1035 268.918 15.1349C269.435 15.1505 269.912 15.1975 270.351 15.2758C272.308 15.5732 273.92 16.223 275.189 17.225C276.473 18.2271 277.42 19.4953 278.03 21.0296C278.657 22.5484 278.97 24.2393 278.97 26.1024C278.97 28.858 278.273 31.23 276.88 33.2185C275.486 35.1912 273.349 36.4124 270.468 36.8821L268.049 37.0935H259.336V48.9066H253.676ZM273.099 48.9066L266.429 35.1442L272.183 33.876L279.51 48.9066H273.099ZM259.336 31.8093H267.415C267.728 31.8093 268.081 31.7937 268.472 31.7624C268.863 31.7311 269.223 31.6684 269.552 31.5745C270.492 31.3396 271.228 30.9247 271.76 30.3298C272.308 29.7348 272.691 29.0616 272.911 28.3101C273.145 27.5585 273.263 26.8227 273.263 26.1024C273.263 25.3822 273.145 24.6464 272.911 23.8948C272.691 23.1277 272.308 22.4466 271.76 21.8516C271.228 21.2567 270.492 20.8418 269.552 20.6069C269.223 20.513 268.863 20.4582 268.472 20.4425C268.081 20.4112 267.728 20.3955 267.415 20.3955H259.336V31.8093Z" fill="white"/>
<path d="M221.503 48.9066V15.0879H243.344V20.3955H227.163V28.7328H240.526V34.0404H227.163V43.5989H243.344V48.9066H221.503Z" fill="white"/>
<path d="M186.808 48.9066V15.0879H200.782C201.111 15.0879 201.533 15.1035 202.05 15.1349C202.567 15.1505 203.044 15.1975 203.483 15.2758C205.44 15.5732 207.052 16.223 208.321 17.225C209.604 18.2271 210.552 19.4953 211.162 21.0296C211.789 22.5484 212.102 24.2393 212.102 26.1024C212.102 27.9499 211.789 29.6409 211.162 31.1752C210.536 32.694 209.581 33.9543 208.297 34.9564C207.029 35.9584 205.424 36.6081 203.483 36.9056C203.044 36.9683 202.559 37.0152 202.026 37.0465C201.51 37.0779 201.095 37.0935 200.782 37.0935H192.468V48.9066H186.808ZM192.468 31.8093H200.547C200.86 31.8093 201.212 31.7937 201.604 31.7624C201.995 31.7311 202.355 31.6684 202.684 31.5745C203.624 31.3396 204.359 30.9247 204.892 30.3298C205.44 29.7348 205.823 29.0616 206.042 28.3101C206.277 27.5585 206.395 26.8227 206.395 26.1024C206.395 25.3822 206.277 24.6464 206.042 23.8948C205.823 23.1277 205.44 22.4466 204.892 21.8516C204.359 21.2567 203.624 20.8418 202.684 20.6069C202.355 20.513 201.995 20.4582 201.604 20.4425C201.212 20.4112 200.86 20.3955 200.547 20.3955H192.468V31.8093Z" fill="white"/>
<path d="M152.113 48.9066V15.0879H166.087C166.416 15.0879 166.838 15.1035 167.355 15.1349C167.872 15.1505 168.349 15.1975 168.788 15.2758C170.745 15.5732 172.358 16.223 173.626 17.225C174.91 18.2271 175.857 19.4953 176.467 21.0296C177.094 22.5484 177.407 24.2393 177.407 26.1024C177.407 27.9499 177.094 29.6409 176.467 31.1752C175.841 32.694 174.886 33.9543 173.602 34.9564C172.334 35.9584 170.729 36.6081 168.788 36.9056C168.349 36.9683 167.864 37.0152 167.332 37.0465C166.815 37.0779 166.4 37.0935 166.087 37.0935H157.773V48.9066H152.113ZM157.773 31.8093H165.852C166.165 31.8093 166.518 31.7937 166.909 31.7624C167.3 31.7311 167.66 31.6684 167.989 31.5745C168.929 31.3396 169.665 30.9247 170.197 30.3298C170.745 29.7348 171.128 29.0616 171.348 28.3101C171.583 27.5585 171.7 26.8227 171.7 26.1024C171.7 25.3822 171.583 24.6464 171.348 23.8948C171.128 23.1277 170.745 22.4466 170.197 21.8516C169.665 21.2567 168.929 20.8418 167.989 20.6069C167.66 20.513 167.3 20.4582 166.909 20.4425C166.518 20.4112 166.165 20.3955 165.852 20.3955H157.773V31.8093Z" fill="white"/>
<path d="M119.94 48.9066V15.0879H141.781V20.3955H125.6V28.7328H138.963V34.0404H125.6V43.5989H141.781V48.9066H119.94Z" fill="white"/>
<path d="M85.2451 48.9066V15.0879H99.2188C99.5476 15.0879 99.9703 15.1035 100.487 15.1349C101.004 15.1505 101.481 15.1975 101.92 15.2758C103.877 15.5732 105.489 16.223 106.758 17.225C108.041 18.2271 108.989 19.4953 109.599 21.0296C110.226 22.5484 110.539 24.2393 110.539 26.1024C110.539 27.9499 110.226 29.6409 109.599 31.1752C108.973 32.694 108.018 33.9543 106.734 34.9564C105.466 35.9584 103.861 36.6081 101.92 36.9056C101.481 36.9683 100.996 37.0152 100.464 37.0465C99.9468 37.0779 99.5319 37.0935 99.2188 37.0935H90.905V48.9066H85.2451ZM90.905 31.8093H98.9839C99.2971 31.8093 99.6494 31.7937 100.041 31.7624C100.432 31.7311 100.792 31.6684 101.121 31.5745C102.061 31.3396 102.796 30.9247 103.329 30.3298C103.877 29.7348 104.26 29.0616 104.479 28.3101C104.714 27.5585 104.832 26.8227 104.832 26.1024C104.832 25.3822 104.714 24.6464 104.479 23.8948C104.26 23.1277 103.877 22.4466 103.329 21.8516C102.796 21.2567 102.061 20.8418 101.121 20.6069C100.792 20.513 100.432 20.4582 100.041 20.4425C99.6494 20.4112 99.2971 20.3955 98.9839 20.3955H90.905V31.8093Z" fill="white"/>
<path fill-rule="evenodd" clip-rule="evenodd" d="M20.2359 17.2344C20.2359 10.3785 25.1079 4.8208 31.938 4.8208C38.7681 4.8208 43.5072 10.2268 43.5072 17.0826V20.3972H46.922C53.7521 20.3972 59.1934 25.2025 59.1934 32.0583C59.1934 38.9141 53.7521 43.8539 46.922 43.8539H43.5072V47.2959C43.5072 54.1517 38.7681 59.1753 31.938 59.1753C25.1079 59.1753 20.2359 53.6418 20.2359 46.786V43.8539H17.1697C10.3396 43.8539 4.80271 38.9141 4.80271 32.0583C4.80271 25.2025 10.3396 20.3972 17.1697 20.3972H20.2359V17.2344ZM14.915 14.9712C16.0191 6.52246 23.2197 0 31.938 0C40.651 0 47.8481 6.51442 48.9589 14.9556C57.4352 16.0096 63.9961 23.2649 63.9961 32.0583C63.9961 40.8575 57.4266 48.1165 48.9424 49.1631C47.7783 57.5447 40.6087 63.9961 31.938 63.9961C23.2619 63.9961 16.0889 57.5367 14.9315 49.1476C6.50647 48.0466 0 40.8152 0 32.0583C0 23.3072 6.49798 16.0794 14.915 14.9712Z" fill="#BBFF72"/>
</svg>
